<svg xmlns="http://www.w3.org/2000/svg" fill="none" viewBox="-0.5 -0.5 64 64" id="Css-3--Streamline-Svg-Logos" height="64" width="64" class="icon"><desc>Css 3 Streamline Icon: https://streamlinehq.com</desc><path fill="#264DE4" d="M31.473225000000003 62.343684374999995 13.625587499999998 57.3890625l-3.977334375 -44.609840625000004h43.703428124999995l-3.9814687500000003 44.602884375 -17.896987499999998 4.961578125Z" stroke-width="1"></path><path fill="#2965F1" d="m45.9619125 54.54192187500001 3.4024593750000003 -38.115196875H31.500328125000003V58.55128125l14.461584375 -4.009359375Z" stroke-width="1"></path><path fill="#EBEBEB" d="m18.765928125000002 32.971903125 0.49035 5.47115625h12.243525v-5.47115625h-12.733875Z" stroke-width="1"></path><path fill="#EBEBEB" d="m17.780896875 21.898209374999997 0.497371875 5.4712218749999995h13.2218625v-5.4712218749999995H17.780896875Z" stroke-width="1"></path><path fill="#EBEBEB" d="m31.500065625 47.181225000000005 -0.023953125 0.006365625 -6.093346875 -1.645284375 -0.38955 -4.363603125h-5.492221874999999l0.7665 8.590640625 11.207371875 3.111215625 0.025199999999999997 -0.0070218749999999995v-5.6923125Z" stroke-width="1"></path><path fill="#000000" d="M19.933921875 0.65625h6.62655v2.771120625h-3.85546875v2.7711140624999997h3.85546875V8.969624999999999H19.933921875V0.65625Z" stroke-width="1"></path><path fill="#000000" d="M27.885834374999998 0.65625h6.62655v2.4096712499999997h-3.85546875v0.48193031249999996h3.85546875v5.5422609375H27.885834374999998V6.5599340625h3.85546875v-0.48193031249999996h-3.85546875V0.65625Z" stroke-width="1"></path><path fill="#000000" d="M35.837746875 0.65625h6.62655v2.4096712499999997h-3.85546875v0.48193031249999996h3.85546875v5.5422609375H35.837746875V6.5599340625h3.85546875v-0.48193031249999996h-3.85546875V0.65625Z" stroke-width="1"></path><path fill="#ffffff" d="m44.19883125 32.972034375 0.9877218750000001 -11.073825000000001H31.4811v5.4712218749999995H39.19059375l-0.49783125000000006 5.602603125H31.4811v5.47115625h6.737193749999999l-0.635053125 7.0957687499999995 -6.1021406250000005 1.646990625v5.6921156250000005l11.216296875 -3.108590625 0.08229375000000001 -0.9243281250000001 1.285659375 -14.403899999999998 0.13348125 -1.4692125Z" stroke-width="1"></path></svg>