 <svg
        xmlns="http://www.w3.org/2000/svg"
        fill="none"
        viewBox="-0.5 -0.5 64 64"
        id="Html-5--Streamline-Svg-Logos"
        height="64"
        width="64"
        class="icon"
      >
        <desc>Html 5 Streamline Icon: https://streamlinehq.com</desc>
        <path
          fill="#E44D26"
          d="m53.35168125 12.779287499999999 -3.9814687500000003 44.60281875L31.473225000000003 62.34375l-17.8476375 -4.9546874999999995 -3.977334375 -44.609775h43.703428124999995Z"
          stroke-width="1"
        ></path>
        <path
          fill="#F16529"
          d="m31.49934375 58.55128125 14.461649999999999 -4.00929375 3.4024593750000003 -38.115196875H31.49934375V58.55128125Z"
          stroke-width="1"
        ></path>
        <path
          fill="#EBEBEB"
          d="M23.760253125 27.3693h7.739878125000001v-5.4712218749999995H17.780896875l0.1309875 1.467834375 1.344721875 15.077146874999999h12.243525v-5.47115625H24.260250000000003l-0.499996875 -5.602603125Z"
          stroke-width="1"
        ></path>
        <path
          fill="#EBEBEB"
          d="M24.992625000000004 41.17876875h-5.4922875l0.7665656249999999 8.590575000000001 11.207371875 3.1112812499999998 0.025134375 -0.0070218749999999995v-5.692378124999999l-0.023953125 0.0064312499999999995 -6.093346875 -1.64535 -0.389484375 -4.3635375000000005Z"
          stroke-width="1"
        ></path>
        <path
          fill="#000000"
          d="M13.714575 0.65625h2.7803999999999998v2.747023125h2.543428125V0.65625h2.78053125v8.318625h-2.7803999999999998V6.18933h-2.543428125V8.974875h-2.7803999999999998L13.714575 0.65625Z"
          stroke-width="1"
        ></path>
        <path
          fill="#000000"
          d="M25.475428124999997 3.4148362500000005h-2.447746875V0.65625h7.67720625v2.7585862500000005h-2.448796875V8.974875h-2.78053125l-0.00013125000000000002 -5.56003875Z"
          stroke-width="1"
        ></path>
        <path
          fill="#000000"
          d="M31.922953125 0.65625h2.89918125l1.783425 2.9229243749999996L38.387146875 0.65625h2.900296875v8.318625h-2.7689812500000004V4.851721875l-1.912903125 2.9577187499999997h-0.047840625000000005l-1.914215625 -2.9577187499999997v4.123153125h-2.72055V0.65625Z"
          stroke-width="1"
        ></path>
        <path
          fill="#000000"
          d="M42.671606249999996 0.65625h2.781253125v5.5689834375h3.9100687499999998V8.974875H42.671606249999996V0.65625Z"
          stroke-width="1"
        ></path>
        <path
          fill="#ffffff"
          d="M31.481428125 38.443125h6.737193749999999l-0.635053125 7.095703125 -6.1021406250000005 1.6470562499999999v5.6921156250000005l11.216296875 -3.108590625 0.08229375000000001 -0.92439375 1.285659375 -14.403899999999998 0.13348125 -1.469146875H31.481428125v5.47115625Z"
          stroke-width="1"
        ></path>
        <path
          fill="#ffffff"
          d="M31.481428125 27.355978125v0.013321874999999999h13.2155625l0.109790625 -1.229746875 0.24924375000000001 -2.7736406249999996 0.13085625 -1.467834375H31.481428125v5.4579Z"
          stroke-width="1"
        ></path>
      </svg>