<svg xmlns="http://www.w3.org/2000/svg" fill="none" viewBox="-0.5 -0.5 24 24" id="Jwt--Streamline-Svg-Logos" height="64" width="64" class="icon"><desc>Jwt Streamline Icon: https://streamlinehq.com</desc><path fill="#ffffff" d="m4.558791666666666 9.761822916666667 -0.0075229166666666665 -2.0240958333333334h-1.1286770833333335l0.007546875000000001 2.0240958333333334 0.5643145833333333 0.7750281250000001 0.5643385416666667 -0.7750281250000001Z" stroke-width="1"></path><path fill="#ffffff" d="M3.4299708333333334 13.230630208333334v2.03161875h1.1286770833333335v-2.03161875l-0.5643385416666667 -0.7750281250000001 -0.5643385416666667 0.7750281250000001Z" stroke-width="1"></path><path fill="#00F2E6" d="m4.5586239583333334 13.230654166666666 1.188884375 1.6403552083333335 0.9104645833333334 -0.6621604166666667 -1.188884375 -1.6403552083333335 -0.9104645833333334 -0.2934416666666667v0.9556020833333333Z" stroke-width="1"></path><path fill="#00F2E6" d="m3.4298270833333335 9.761822916666667 -1.1963905208333332 -1.6403552083333335 -0.9104645833333334 0.6621604166666667 1.1888676041666666 1.64033125 0.9179875 0.293465625V9.761822916666667Z" stroke-width="1"></path><path fill="#00B9F1" d="m2.5119833333333332 10.423983333333334 -1.9262739583333335 -0.624521875L0.23958333333333334 10.867931250000002 2.1658548958333332 11.5l0.9104669791666666 -0.30098854166666666 -0.5643385416666667 -0.7750281250000001Z" stroke-width="1"></path><path fill="#00B9F1" d="m4.904797916666667 11.793417708333333 0.5643385416666667 0.7750281250000001 1.9262739583333335 0.6245458333333334 0.3461260416666667 -1.0684937500000002 -1.9262739583333335 -0.624521875 -0.9104645833333334 0.2934416666666667Z" stroke-width="1"></path><path fill="#D63AFF" d="m5.8152625 11.5 1.9262739583333335 -0.63206875 -0.3461260416666667 -1.0684697916666666 -1.9262739583333335 0.624521875 -0.5643385416666667 0.7750281250000001L5.8152625 11.5Z" stroke-width="1"></path><path fill="#D63AFF" d="M2.1658548958333332 11.499976041666667 0.23958333333333334 12.124497916666668l0.3461260416666667 1.0684937500000002 1.9262739583333335 -0.6245458333333334 0.5643385416666667 -0.7750281250000001 -0.9104669791666666 -0.2934416666666667Z" stroke-width="1"></path><path fill="#FB015B" d="m2.5118395833333333 12.56849375 -1.1888676041666666 1.6403552083333335 0.9104645833333334 0.6621604166666667 1.1963905208333332 -1.6403552083333335V12.275052083333334l-0.9179875 0.2934416666666667Z" stroke-width="1"></path><path fill="#FB015B" d="m5.469088541666667 10.423959374999999 1.188884375 -1.64033125 -0.9104645833333334 -0.6621604166666667 -1.188884375 1.6403552083333335v0.9556020833333333l0.9104645833333334 -0.293465625Z" stroke-width="1"></path><path fill="#000000" d="M11.955184375000002 9.656478125000001v2.6335718750000003c0 0.579384375 -0.47406354166666664 1.0534239583333334 -1.0534479166666668 1.0534239583333334v-0.5267c0.293465625 0 0.5267239583333334 -0.23325833333333335 0.5267239583333334 -0.5267239583333334V9.656478125000001h0.5267239583333334Zm9.6163 0.5267239583333334h1.188884375v-0.5267239583333334H19.863422916666664v0.5267239583333334h1.1813375v3.160271875h0.5267239583333334V10.183202083333333Zm-3.295732291666667 -0.5267239583333334v2.6335718750000003c0 0.293465625 -0.23325833333333335 0.5267239583333334 -0.5267239583333334 0.5267239583333334 -0.2934416666666667 0 -0.5267 -0.23325833333333335 -0.5267 -0.5267239583333334v-1.5801479166666668c0 -0.579384375 -0.47403958333333335 -1.0534239583333334 -1.0534239583333334 -1.0534239583333334 -0.5794083333333334 0 -1.0534479166666668 0.47403958333333335 -1.0534479166666668 1.0534239583333334v1.5801479166666668c0 0.293465625 -0.23325833333333335 0.5267239583333334 -0.5267 0.5267239583333334 -0.293465625 0 -0.5267239583333334 -0.23325833333333335 -0.5267239583333334 -0.5267239583333334V9.656478125000001h-0.5267239583333334v2.6335718750000003c0 0.579384375 0.47406354166666664 1.0534239583333334 1.0534479166666668 1.0534239583333334 0.579384375 0 1.0534239583333334 -0.47403958333333335 1.0534239583333334 -1.0534239583333334v-1.5801479166666668c0 -0.2934416666666667 0.23325833333333335 -0.5267 0.5267239583333334 -0.5267 0.2934416666666667 0 0.5267 0.23325833333333335 0.5267 0.5267v1.5801479166666668c0 0.579384375 0.47403958333333335 1.0534239583333334 1.0534239583333334 1.0534239583333334 0.5794083333333334 0 1.0534479166666668 -0.47403958333333335 1.0534479166666668 -1.0534239583333334V9.656478125000001h-0.5267239583333334Z" stroke-width="1"></path></svg>