<svg xmlns="http://www.w3.org/2000/svg" xml:space="preserve" width="2000" height="289" data-id="lg_LibpEXm25lPGAWPDiI" data-version="1" viewBox="0 0 2000 289"><g data-padding="20"><g transform="translate(10 4.256)scale(.97054)"><rect width="560" height="289.28" x="280.846" y="-400.34" fill="none" rx="0" ry="0" transform="translate(400.5 400.2)"/><path fill="#211f1f" d="M872.716 55.72q0 9.72-3.71 23.93t-9.73 30.98q-6.01 16.77-12.67 34.17-6.66 17.41-12.67 33.67-6.02 16.25-9.73 29.44-3.71 13.18-3.71 21.12 0 12.03 7.93 12.03 7.68 0 18.69-7.04t23.43-18.94q12.41-11.91 24.44-27.14 12.04-15.23 21.89-31.62 9.86-16.38 15.75-32.38 5.88-16 5.88-29.31 0-8.96-2.43-16.13t-10.11-7.17q-3.33 0-5.25-1.41-1.92-1.4-1.92-2.68 0-2.56 4.35-2.56 3.08 0 7.81 2.17 4.74 2.18 9.47 6.66 4.74 4.48 8.07 11.39t3.33 16.38q0 11.78-6.28 27.27-6.27 15.49-16.89 32-10.63 16.51-24.07 32.25-13.44 15.75-28.03 28.42t-28.54 20.22q-13.95 7.56-25.73 7.56-9.98 0-13.31-6.15-3.33-6.14-3.33-16.13 0-15.61 5.25-34.04 5.25-18.44 13.05-38.28 7.81-19.84 15.62-39.55t13.06-37.89q5.24-18.17 5.24-33.53 0-17.41-9.85-23.55-9.86-6.15-25.73-6.15-15.62 0-33.15 5.89-17.54 5.89-34.31 16.64-16.76 10.75-30.33 25.73-13.57 14.97-21.63 33.28-8.07 18.3-8.07 39.29 0 12.29 4.23 22.92 4.22 10.62 13.69 17.15t24.83 6.53q11.52 0 22.15-4.87 10.62-4.86 18.81-13.18 8.2-8.32 13.06-18.56t4.86-20.99q0-8.71-3.58-15.24-3.58-6.52-12.03-6.52-3.33 0-6.91 1.02-3.59 1.02-4.87 1.02t-1.28-1.53q0-.51.51-1.28.52-.77 1.8-1.54 2.81-1.53 6.91-2.43 4.09-.9 7.17-.9 11.26 0 17.4 7.94 6.15 7.94 6.15 19.2 0 12.29-6.4 23.81t-17.03 20.73q-10.62 9.22-23.8 14.6-13.19 5.37-27.01 5.37-17.15 0-29.06-8.45-11.9-8.44-17.92-22.14-6.01-13.7-6.01-29.31 0-20.23 8.06-38.53t22.14-33.28 32-25.98q17.92-11.01 37.76-17.03 19.84-6.01 39.56-6.01 14.84 0 26.75 4.86 11.9 4.86 18.94 15.49 7.04 10.62 7.04 28.29m374.53 216.06q-17.92 0-34.69-11.14-16.77-11.13-28.54-36.99-5.12-11.52-8.32-23.29-3.2-11.78-4.74-22.02-1.53-10.24-1.53-16.9 0-8.19 1.79-9.21 4.86.51 16.25-4.1 11.4-4.61 27.14-13.57t34.05-21.63q18.3-12.67 36.86-28.54t35.71-34.31q17.16-18.43 30.21-38.65 1.79-2.82 2.82-4.1 1.02-1.28 2.05-1.28 1.28 0 2.3 1.15 1.02 1.16 1.02 2.44 0 2.04-1.79 4.86-12.29 20.48-29.05 40.06-16.77 19.59-35.72 36.74-18.94 17.15-38.14 30.98-19.2 13.82-36.61 23.04-17.41 9.21-30.72 12.54-.77-.51-.77 2.56 0 4.35 1.8 13.95 1.79 9.6 5.5 21.76t9.09 24.71q9.73 22.78 22.91 31.36 13.18 8.57 27.26 8.57 8.96 0 18.44-3.58 9.47-3.59 17.4-9.86 7.94-6.27 12.29-14.72 1.54-2.56 2.31-2.56 1.79 0 1.79 2.05 0 .77-.39 1.66-.38.9-1.66 3.72-3.58 7.16-11.9 15.23-8.32 8.06-19.72 13.57-11.39 5.5-24.7 5.5m-217.34-3.33q-17.41 0-33.67-4.73-16.25-4.74-29.18-13.96-12.93-9.21-20.48-22.52-7.55-13.32-7.55-30.21 0-12.29 3.71-21.89t9.21-16q5.51-6.4 11.01-9.73 5.51-3.33 9.09-3.33 2.56 0 2.56 1.54 0 1.28-1.28 2.05-5.89 3.07-12.03 8.96-6.15 5.89-10.24 15.36-4.1 9.47-4.1 23.55 0 15.36 6.53 26.24t17.15 17.79q10.63 6.91 22.91 10.11 12.29 3.2 23.56 3.2 25.08 0 46.84-9.72 21.76-9.73 39.81-25.99 18.05-16.25 31.87-36.22 13.83-19.97 22.79-40.45 3.33-7.42 7.93-17.79 4.61-10.37 9.99-22.15 5.37-11.77 10.49-23.04 5.12-11.26 9.35-20.35 4.22-9.09 6.78-13.95-17.15 2.05-36.99 3.71-19.84 1.67-37.76 6.79-19.97 5.63-32.64 16.38t-18.69 23.3q-6.01 12.54-6.01 23.55 0 13.31 6.65 21.89 6.66 8.57 19.2 8.57 9.47 0 16.9-5.5 7.42-5.51 11.77-14.34 4.36-8.83 4.36-18.81 0-4.1-.77-6.92-.77-2.81-.77-4.35 0-1.79 1.28-1.79 1.79 0 3.33 3.07 2.56 5.89 2.56 11.52 0 12.03-5.89 21.63t-15.1 15.24q-9.22 5.63-19.46 5.63-12.03 0-20.86-5.76-8.84-5.76-13.7-15.23-4.86-9.48-4.86-20.48 0-12.55 6.91-25.48 6.91-12.92 22.27-23.55 15.36-10.62 40.45-16.25 20.99-4.61 42.75-6.02t38.4-2.94q8.96-13.83 14.59-17.54t10.24-3.71 7.3 2.56 2.69 6.14q0 5.12-7.04 10.88t-23.68 7.55q-8.2 15.11-15.11 33.67t-13.82 38.78q-6.91 20.23-15.11 40.19-13.82 33.28-32.76 58.24-18.95 24.96-44.55 38.79-25.6 13.82-59.13 13.82m185.34-229.89q6.4-.51 12.29-3.71t5.89-7.04q0-2.56-2.56-2.56-2.31 0-6.4 2.95-4.1 2.94-9.22 10.36"/></g><path fill="transparent" stroke="transparent" d="M660.5 0h679v289h-679z"/></g></svg>